<svg width="737" height="340" viewBox="0 0 737 340" fill="none" xmlns="http://www.w3.org/2000/svg">
  <path opacity="0.1" d="M-1 5.9736L235.283 242.257C252.578 259.682 280.624 259.682 297.919 242.257L409.414 129.927C426.71 112.502 454.756 112.502 472.051 129.927L535.206 191.303C552.389 208.486 574.988 221.54 600.314 196.215L736 60.5287" stroke="white" stroke-width="2" stroke-miterlimit="10"/>
  <path opacity="0.1" d="M0.99076 135.71L65.4735 199.67C87.1339 221.213 87.1339 256.134 65.4735 277.672L-0.745361 338.92M206.005 1.21861L285.064 80.2776C305.574 100.671 338.831 100.671 359.347 80.2776L438.406 1.21862M642.915 1.21863L575.742 63.6727C567.37 71.9953 567.37 85.4855 575.742 93.8081L590.161 108.145C598.533 116.468 612.099 116.468 620.466 108.145L734.464 1.21862" stroke="white" stroke-width="2" stroke-miterlimit="10"/>
  <circle cx="349.092" cy="190.391" r="5" fill="#02C98F"/>
  <circle cx="38.44" cy="173.526" r="4.66246" fill="#02C98F"/>
  <circle cx="267.161" cy="61.8353" r="4.66246" fill="#02C98F"/>
  <circle cx="605.19" cy="114.286" r="4.66246" fill="#02C98F"/>
  <rect x="152.946" y="165.593" width="9.84224" height="9.84224" transform="rotate(-45 152.946 165.593)" fill="#02C98F"/>
  <rect x="563.13" y="215.011" width="9.32492" height="9.32492" transform="rotate(-90 563.13 215.011)" fill="#02C98F"/>
</svg>
